<svg width="32" height="32" viewBox="0 0 32 32" fill="none" xmlns="http://www.w3.org/2000/svg">
  <!-- Define gradient -->
  <defs>
    <linearGradient id="backgroundGradient" x1="0%" y1="0%" x2="0%" y2="100%">
      <stop offset="0%" style="stop-color:#ffcc4b;stop-opacity:1" />
      <stop offset="100%" style="stop-color:#ff8964;stop-opacity:1" />
    </linearGradient>
  </defs>
  
  <!-- Apply gradient to background -->
  <rect width="32" height="32" rx="4" fill="url(#backgroundGradient)"/>
  
  <!-- Pump'd logo scaled to balance spacing -->
  <g transform="translate(16, 16)">
    <g transform="scale(0.011) translate(-1241, -609)">
      <path d="M2179.61 44.6726C2184.04 55.2742 2182.59 69.6579 2175.26 87.8429L2170.9 98.4635C2166.41 109.524 2162.65 117.527 2159.59 122.456C2140.64 160.201 2115.52 189.007 2084.25 208.873C2053.02 228.7 2022.13 232.387 1991.57 219.952C1988.46 218.729 1986.62 215.291 1986.07 209.637C1985.5 203.982 1986.76 197.392 1989.81 189.847C1992.87 182.321 1996.25 176.858 1999.98 173.496C2003.68 170.096 2006.89 168.529 2009.6 168.835C2012.3 169.141 2014.34 169.484 2015.72 169.828C2017.13 170.134 2020.01 170.019 2024.35 169.446C2028.73 168.892 2033 167.364 2037.19 164.862C2048.04 158.501 2057.86 145.741 2066.68 126.582C2052.47 118.234 2043.24 108.817 2039.02 98.3107C2034.78 87.8238 2037.61 70.4029 2047.5 46.0479C2054.68 28.2832 2062.21 15.9815 2070.12 9.14307C2078.07 2.32369 2087.16 -0.67531 2097.4 0.126972C2107.67 0.948355 2122.32 5.22718 2141.33 12.9634C2160.38 20.6615 2173.14 31.2249 2179.61 44.6726Z" fill="white"/>
      <path d="M2378.54 153.623C2385.36 148.886 2393.71 147.434 2403.61 149.268C2413.48 151.063 2425.46 155.686 2439.52 163.174C2453.58 170.624 2464.14 177.959 2471.23 185.179C2478.35 192.362 2481.81 200.212 2481.62 208.713C2481.41 217.175 2480.26 224.128 2478.18 229.572C2476.08 235.035 2472.32 242.924 2466.87 253.258L2254.69 653.329C2249.22 663.605 2244.83 671.151 2241.47 675.945C2238.11 680.778 2232.95 685.343 2226.03 689.622C2212.93 698.122 2190.85 694.149 2159.79 677.703C2128.77 661.237 2117.27 641.142 2125.33 617.417C2095.17 628.878 2063.32 625.707 2029.82 607.942C1989.57 586.587 1962.22 549.643 1947.76 497.075C1933.34 444.468 1938.51 394.823 1963.27 348.157C1988.03 301.452 2026.4 269.266 2078.42 251.577C2130.41 233.908 2176.31 235.646 2216.1 256.773C2249.15 274.309 2268.92 299.103 2275.39 331.194L2350.04 190.451C2355.49 180.117 2359.9 172.572 2363.26 167.835C2366.66 163.059 2371.76 158.322 2378.54 153.623ZM2076.51 460.094C2081.74 478.336 2092.63 491.841 2109.13 500.59C2125.64 509.3 2142.54 510.523 2159.87 504.257C2177.23 497.992 2189.76 487.6 2197.46 473.083C2205.14 458.566 2207.05 442.291 2203.19 424.259C2199.37 406.188 2188.52 392.397 2170.64 382.922C2152.76 373.448 2135.19 371.996 2117.92 378.567C2100.69 385.138 2088.16 395.816 2080.33 410.582C2072.53 425.309 2071.25 441.813 2076.51 460.094Z" fill="white"/>
      <path d="M1504.44 554.477L1596.2 120.787C1598.59 109.441 1600.75 101.112 1602.7 95.8019C1604.63 90.5107 1608.06 84.7801 1613.01 78.6102C1622.73 66.748 1640.71 63.5961 1666.95 69.1357C1693.18 74.6943 1710.16 81.7811 1717.92 90.377C1725.65 98.992 1728.92 109.861 1727.7 123.003C1752 101.265 1784.28 94.6558 1824.58 103.213C1864.93 111.733 1899.12 138.877 1927.2 184.664C1955.26 230.47 1963.95 278.607 1953.25 329.074C1942.6 379.561 1915.3 420.057 1871.35 450.562C1827.37 481.125 1785.1 492.09 1744.51 483.494C1703.96 474.879 1676.91 457.248 1663.36 430.62L1631.65 580.608C1629.25 591.955 1627.09 600.283 1625.16 605.593C1623.21 610.942 1619.62 616.787 1614.39 623.167C1609.19 629.528 1601.82 633.253 1592.3 634.323C1582.77 635.431 1570.34 634.361 1555.02 631.114C1539.68 627.847 1527.74 623.74 1519.18 618.812C1510.66 613.922 1505.28 607.599 1502.98 599.863C1500.73 592.165 1499.81 585.517 1500.23 579.92C1500.63 574.304 1502.03 565.823 1504.44 554.477ZM1725.56 235.857C1711.35 246.822 1702.56 260.212 1699.2 276.047C1695.84 291.902 1698.59 307.604 1707.45 323.191C1716.35 338.778 1729.84 348.482 1747.87 352.302C1765.94 356.123 1782.65 352.952 1797.99 342.751C1813.31 332.57 1822.71 319.294 1826.19 302.943C1829.65 286.592 1826.82 270.603 1817.71 254.959C1808.58 239.276 1794.5 229.42 1775.45 225.389C1756.39 221.378 1739.77 224.854 1725.56 235.857Z" fill="white"/>
      <path d="M1070.12 85.2424C1093.9 49.3308 1122.5 31.375 1155.93 31.375C1207.52 31.375 1245.97 53.3804 1271.3 97.3912C1276.84 89.8077 1283.55 81.8422 1291.4 73.4756C1299.23 65.1281 1311.74 56.0356 1328.91 46.1981C1346.13 36.3224 1363.85 31.375 1382.09 31.375C1422.59 31.375 1456.48 46.9431 1483.79 78.06C1511.09 109.196 1524.75 160.657 1524.75 232.48V365.353C1524.75 376.967 1524.36 385.715 1523.6 391.56C1522.88 397.367 1520.49 404.072 1516.42 411.656C1509.85 425.313 1490.36 432.133 1457.97 432.133C1426.07 432.133 1406.58 425.065 1399.51 410.892C1396 403.308 1393.86 396.603 1393.1 390.796C1392.33 384.951 1391.95 376.202 1391.95 364.589V231.716C1391.95 187.705 1376.25 165.7 1344.88 165.7C1327.16 165.7 1315.12 171.545 1308.82 183.197C1302.5 194.811 1299.34 211.238 1299.34 232.48V365.353C1299.34 377.482 1298.96 386.346 1298.2 391.942C1297.43 397.501 1295.03 404.072 1291.02 411.656C1283.93 425.313 1264.2 432.133 1231.8 432.133C1199.9 432.133 1180.42 425.065 1173.35 410.892C1169.78 403.308 1167.62 396.603 1166.85 390.796C1166.13 384.951 1165.78 376.202 1165.78 364.589V231.716C1165.78 187.705 1150.08 165.7 1118.72 165.7C1088.35 165.7 1073.18 187.705 1073.18 231.716V366.117C1073.18 377.731 1072.8 386.479 1072.03 392.324C1071.27 398.131 1068.84 404.836 1064.77 412.42C1057.17 425.562 1037.46 432.133 1005.63 432.133C973.734 432.133 954.25 425.313 947.182 411.656C943.61 404.072 941.451 397.501 940.687 391.942C939.923 386.346 939.541 377.482 939.541 365.353V98.1552C939.541 86.5413 939.923 77.8308 940.687 72.0238C941.451 66.1787 943.858 59.7031 947.946 52.6163C955.53 38.9776 973.485 32.1391 1001.81 32.1391C1030.12 32.1391 1048.59 36.7044 1057.21 45.816C1065.8 54.8894 1070.12 68.0315 1070.12 85.2424Z" fill="white"/>
      <path d="M722.611 488.611C672.678 499.671 627.101 489.948 585.841 459.423C544.619 428.917 518.029 386.492 505.995 332.128L477.266 202.464C474.63 190.659 473.064 181.949 472.605 176.333C472.147 170.736 472.834 163.86 474.668 155.703C478.641 140.784 496.444 129.839 528.077 122.848C562.613 115.207 584.924 120.097 595.01 137.518C599.747 144.758 604.026 157.04 607.847 174.346L636.576 304.01C641.046 324.296 650.348 338.833 664.465 347.639C678.619 356.464 695.448 358.699 714.97 354.363C734.473 350.046 748.971 340.609 758.446 326.092C767.92 311.536 770.518 294.593 766.239 275.281L737.205 144.165C734.645 132.819 733.117 124.204 732.62 118.34C732.104 112.494 733.021 105.427 735.371 97.1748C738.924 82.8675 756.497 72.2277 788.092 65.2364C819.266 58.3597 839.763 60.843 849.6 72.6479C854.739 79.2763 858.311 85.3698 860.297 90.9094C862.322 96.4107 864.595 104.816 867.097 116.124L925.167 378.508C927.555 389.357 929.007 397.743 929.522 403.646C930.076 409.51 929.14 416.31 926.695 424.046C922.111 438.526 904.499 449.146 873.898 455.908C843.736 462.594 823.87 460.779 814.3 450.484C807.576 443.206 802.877 433.636 800.241 421.754C799.018 425.632 795.656 431.573 790.155 439.557C784.654 447.504 779.191 454.418 773.804 460.264C759.382 474.838 742.324 484.294 722.611 488.611Z" fill="white"/>
      <path d="M398.39 142.535C422.535 160.109 442.267 183.451 457.606 212.524C472.983 241.616 481.063 270.957 481.827 300.546C482.591 330.154 477.434 356.705 466.393 380.239C444.273 428.49 413.328 463.103 373.558 484.077L289.662 528.317L329.7 604.113C335.144 614.466 338.888 622.375 340.932 627.876C342.957 633.339 343.931 640.368 343.835 648.964C343.931 664.36 329.662 679.585 301.047 694.656C269.758 711.16 247.065 712.593 232.968 698.935C226.244 692.727 218.756 681.781 210.504 666.08L14.1365 293.669C8.69243 283.392 4.96756 275.484 2.98096 269.983C0.956159 264.481 -0.0371449 257.433 0.00106135 248.818C-0.0944469 233.441 14.1747 218.216 42.7893 203.126L186.436 127.33C225.747 106.604 271.554 100.74 323.816 109.756C349.432 113.997 374.284 124.923 398.39 142.535ZM311.668 364.881C325.058 357.813 335.621 345.932 343.377 329.275C351.17 312.618 349.871 294.471 339.48 274.796C329.089 255.083 314.743 243.603 296.463 240.337C278.22 237.089 262.175 239.114 248.326 246.449L164.43 290.689L227.084 409.503L311.668 364.881Z" fill="white"/>
      <path d="M1524.96 954.199C1524.96 954.199 1089.05 1237.34 696.125 860.187C686.427 861.056 680.774 869.429 679.839 876.908C670.342 976.699 1075.46 1393.74 1599.24 1072.12C1535.19 1171.33 1646.97 1218 1646.97 1218C1646.97 1218 1866.74 927.836 1782.87 851.236C1698.99 774.636 1627.3 876.908 1264.81 810.896C1284.81 866.085 1298.47 952.095 1524.96 954.199Z" fill="white"/>
    </g>
  </g>
</svg>